# xmcd
#
# Track frame offsets:
#	150
#	14513
#	30087
#	45263
#	60087
#	75557
#	89619
#	103649
#	117958
#	133091
#	146526
#	164057
#	179943
#	195976
#	213421
#
# Disc length: 3052 seconds
#
# Revision: 1
# Processed by: cddbd v1.5.2PL0 Copyright (c) Steve Scherf et al.
# Submitted via: audiograbber 1.83.01
#
DISCID=c60bea0f
DTITLE=Dustin Lynch - Where It's At
DYEAR=2014
DGENRE=Country
TTITLE0=Hell of a Night
TTITLE1=To the Sky
TTITLE2=Halo
TTITLE3=After Party
TTITLE4=Where It's At
TTITLE5=Mind Reader
TTITLE6=Right Where We Want It
TTITLE7=She Wants a Cowboy
TTITLE8=Sing It To Me
TTITLE9=All Night
TTITLE10=Middle of Nowhere
TTITLE11=World to Me
TTITLE12=What You Wanna Hear
TTITLE13=Your Daddy's Boots
TTITLE14=American Prayer
EXTD=
EXTT0=
EXTT1=
EXTT2=
EXTT3=
EXTT4=
EXTT5=
EXTT6=
EXTT7=
EXTT8=
EXTT9=
EXTT10=
EXTT11=
EXTT12=
EXTT13=
EXTT14=
PLAYORDER=
